<?xml version="1.0" encoding="utf-8"?>
<!DOCTYPE svg PUBLIC "-//W3C//DTD SVG 1.1//EN" "http://www.w3.org/Graphics/SVG/1.1/DTD/svg11.dtd">
<svg version="1.1" xmlns="http://www.w3.org/2000/svg" xmlns:xlink="http://www.w3.org/1999/xlink" xmlns:xml="http://www.w3.org/XML/1998/namespace">
  <path d="M248 188 A0.5973154 0.4026846 0 0 0 426 188 A0.5973154 0.4026846 0 0 0 248 188 z" style="fill:#FFFF00;stroke:#5AFF00;" />
  <path d="M572.2816 110.0692 A0.6352953 0.3647047 59 0 0 655.7184 248.9308 A0.6352953 0.3647047 59 0 0 572.2816 110.0692 z" style="fill:#FFFF00;stroke:#5AFF00;" />
  <path d="M802.3915 285.8925 A0.6132809 0.3867191 273 0 0 810.6086 129.1073 A0.6132809 0.3867191 273 0 0 802.3915 285.8925 z" style="fill:#FFFF00;stroke:#5AFF00;" />
  <path d="M283.6579 283.5143 A0.6859207 0.3140793 91 0 0 280.3421 473.4857 A0.6859207 0.3140793 91 0 0 283.6579 283.5143 z" style="fill:#FFFF00;stroke:#5AFF00;" />
  <path d="M567.03 324.5408 A0.5693788 0.4306213 122 0 0 503.9699 425.4591 A0.5693788 0.4306213 122 0 0 567.03 324.5408 z" style="fill:#FFFF00;stroke:#5AFF00;" />
  <path d="M813.9479 416.5186 A0.6705429 0.3294571 182 0 0 641.0521 410.4814 A0.6705429 0.3294571 182 0 0 813.9479 416.5186 z" style="fill:#FFFF00;stroke:#5AFF00;" />
  <path d="M1047.382 437.7764 A0.5672508 0.4327492 226 0 0 912.6182 298.2238 A0.5672508 0.4327492 226 0 0 1047.382 437.7764 z" style="fill:#FFFF00;stroke:#5AFF00;" />
  <path d="M1110.417 331.4783 A0.7493669 0.2506332 271 0 0 1115.582 35.52199 A0.7493669 0.2506332 271 0 0 1110.417 331.4783 z" style="fill:#FFFF00;stroke:#5AFF00;" />
  <path d="M545.7053 675.8918 A0.8153844 0.1846156 322 0 0 796.2946 480.109 A0.8153844 0.1846156 322 0 0 545.7053 675.8918 z" style="fill:#FFFF00;stroke:#5AFF00;" />
  <path d="M1146.218 495.5102 A0.4423075 0.5576925 355 0 0 1260.781 485.4888 A0.4423075 0.5576925 355 0 0 1146.218 495.5102 z" style="fill:#FFFF00;stroke:#5AFF00;" />
  <path d="M532 446 C568 94 1114 562 1070 97" fill-opacity="0" style="fill:#000000;stroke:#5AFF00;" />
</svg>